<svg width="81" height="137" viewBox="0 0 81 137" fill="none" xmlns="http://www.w3.org/2000/svg">
<path d="M25.3071 128.081C28.5203 116.595 26.2212 104.401 32.2466 93.6161C36.7479 95.3255 36.998 98.6466 35.5434 101.015C33.4959 104.372 33.6232 107.798 33.4272 111.292C33.0718 117.77 32.8999 124.259 32.7042 130.734C32.5227 136.766 30.6127 138.126 25.4084 135.649C18.4427 132.347 11.52 128.941 4.59048 125.548C3.25475 124.892 2.01003 124.048 0.539406 123.184C4.73231 119.976 5.50304 120.122 21.3589 126.874C20.953 125.137 20.7901 123.752 20.3189 122.493C11.3967 98.6741 11.8306 75.2274 23.1492 52.2449C27.982 42.4191 34.4542 34.0236 44.625 29.4763C47.4436 28.2156 48.484 26.1037 49.3144 23.4978C51.85 15.6581 56.1809 9.00171 62.244 3.55621C63.7939 2.16252 65.6073 1.08474 67.7554 0.364653C61.6219 8.33067 54.6474 15.5772 52.7567 26.2932C54.2381 26.3577 55.5105 26.4284 56.7847 26.4679C68.316 26.7962 77.24 34.0037 80.2431 45.403C82.8692 55.4046 78.051 64.3688 68.6529 66.9692C58.1062 69.8939 48.4356 64.5036 46.2498 54.1161C45.4797 50.4574 45.6318 46.5669 45.5318 42.7862C45.4764 40.6268 45.766 38.4445 45.9381 35.6614C40.4603 37.5676 36.8909 41.1265 33.8797 45.2066C22.0264 61.3012 17.0495 79.5175 18.6962 99.4652C19.2213 105.896 20.8683 112.245 22.2656 118.561C22.9749 121.797 24.2814 124.901 25.3208 128.057L25.3071 128.081ZM64.2727 33.3637C61.6499 33.1926 57.5961 32.7289 53.5276 32.8204C52.44 32.8422 50.6462 34.4149 50.4333 35.5144C49.2125 42.0963 48.416 48.7663 50.7895 55.2842C52.9267 61.1316 59.2888 64.1596 65.92 62.6731C72.2467 61.2494 75.9814 56.5631 75.4065 50.2477C74.7851 43.3732 71.1625 38.2485 64.2659 33.3758L64.2727 33.3637Z" fill="#755AE8"/>
</svg>
